<?xml version="1.0" encoding="UTF-8" standalone="no"?>
<!-- Created with Inkscape (http://www.inkscape.org/) -->

<svg
   version="1.1"
   id="svg1"
   width="398"
   height="374"
   viewBox="0 0 398 374"
   sodipodi:docname="out.svg"
   inkscape:version="1.3 (0e150ed6c4, 2023-07-21)"
   xmlns:inkscape="http://www.inkscape.org/namespaces/inkscape"
   xmlns:sodipodi="http://sodipodi.sourceforge.net/DTD/sodipodi-0.dtd"
   xmlns="http://www.w3.org/2000/svg"
   xmlns:svg="http://www.w3.org/2000/svg">
  <defs
     id="defs1" />
  <sodipodi:namedview
     id="namedview1"
     pagecolor="#ffffff"
     bordercolor="#000000"
     borderopacity="0.25"
     inkscape:showpageshadow="2"
     inkscape:pageopacity="0.0"
     inkscape:pagecheckerboard="0"
     inkscape:deskcolor="#d1d1d1"
     showgrid="false"
     inkscape:zoom="2.0676197"
     inkscape:cx="131.31041"
     inkscape:cy="172.17866"
     inkscape:window-width="1920"
     inkscape:window-height="1032"
     inkscape:window-x="0"
     inkscape:window-y="0"
     inkscape:window-maximized="1"
     inkscape:current-layer="svg1" />
  <path
     style="display:inline;fill:#000000"
     d="M 67.037495,341.54518 C 66.329373,340.69194 65.75,338.95037 65.75,337.67501 c 0,-2.20463 6.817536,-23.23112 9.945928,-30.67501 0.809007,-1.925 2.045484,-4.85 2.747727,-6.5 0.702243,-1.65 2.027272,-5.5875 2.94451,-8.75 0.917238,-3.1625 2.105134,-5.75 2.63977,-5.75 1.273218,0 1.231621,0.69818 -0.391348,6.5685 -0.749877,2.71232 -1.940532,8.0815 -2.6459,11.9315 -0.705367,3.85 -1.913258,8.8 -2.684201,11 -1.934921,5.52158 -3.316809,11.92477 -2.346068,10.87086 2.977048,-3.23212 33.944822,-46.772 44.907462,-63.13872 l 6.20773,-9.26787 -4.28781,0.63859 c -2.35829,0.35123 -7.50756,1.16879 -11.44283,1.81681 -10.33789,1.70234 -31.705461,1.93272 -43.052804,0.46419 C 60.92237,255.93008 57.314067,254.92188 53.705994,252.80829 51.06929,251.26373 48.564597,250 48.140008,250 c -0.424589,0 -1.738272,-2.3625 -2.919294,-5.25 -2.734461,-6.68553 -2.167681,-11.79789 2.355872,-21.25 7.538475,-15.75188 25.6688,-33.15087 46.939668,-45.04621 7.048366,-3.94168 15.197206,-6.66625 17.641366,-5.8984 4.24212,1.33268 2.74672,3.53028 -6.27443,9.22075 -4.99075,3.14812 -11.086977,7.23052 -13.547172,9.07199 -2.460195,1.84148 -4.708491,3.11273 -4.996214,2.82501 -0.900646,-0.90065 1.081043,-3.53252 4.632998,-6.15307 6.392015,-4.71588 1.373247,-2.54258 -6.065973,2.62678 -10.004863,6.95217 -26.506318,23.7974 -31.120282,31.76862 -2.0424,3.52851 -4.2143,8.82803 -4.826446,11.77672 -0.975918,4.70098 -0.881755,5.75822 0.764575,8.58453 3.992313,6.85373 14.86914,9.72328 36.85544,9.72328 9.65108,0 37.134604,-2.95225 42.547114,-4.57037 1.81081,-0.54136 14.74001,-20.93021 31.85584,-50.23545 l 11.27564,-19.30581 -4.73432,-13.19419 C 156.87515,132.22865 145.97318,105.83755 136.4295,87 131.34011,76.954422 125.97432,68.233505 127.50798,72.5 c 1.66839,4.641325 1.70458,5.5 0.2318,5.5 -1.92405,0 -5.95548,-9.309941 -5.54913,-12.814784 0.7278,-6.27726 7.2146,-2.188004 13.56415,8.550782 C 141.26541,83.055934 145.22722,91.061815 152.71077,108 158.17731,120.3729 175,162.92905 175,164.38478 c 0,0.26676 0.46746,1.71452 1.03879,3.21725 0.99326,2.61246 1.0972,2.64819 2.37128,0.8151 0.73286,-1.05442 4.83624,-8.21713 9.11862,-15.91713 16.3698,-29.43402 36.99109,-63.307853 54.78906,-90 11.64724,-17.467726 33.52727,-46.5 35.04449,-46.5 4.19736,0 2.73033,3.111097 -8.52362,18.075909 -22.42797,29.823308 -52.50673,77.822881 -79.65561,127.114111 l -9.19262,16.69002 4.4146,11.80998 C 191.01823,207.38182 200.53198,229 201.70457,229 204.5984,229 332.72079,186.44093 340,183.0617 l 4.5,-2.08903 -35.9659,0.56289 c -19.78124,0.3096 -36.16476,0.76177 -36.40782,1.00483 -0.60855,0.60855 12.4507,6.45961 14.4175,6.45961 0.87324,0 2.51891,0.49837 3.65706,1.10749 6.34199,3.39413 -11.56175,3.27952 -18.21874,-0.11662 -6.40314,-3.26664 -9.9821,-6.868 -9.9821,-10.04458 0,-1.74955 0.70737,-3.2545 1.80611,-3.84252 1.06509,-0.57002 20.0408,-1.06209 46.25,-1.19933 44.92745,-0.23526 49.94389,0.1042 49.94389,3.37968 0,2.98015 -3.05381,4.94316 -14.35481,9.22735 -20.28126,7.68859 -96.99415,33.4729 -128.14519,43.07145 -6.6,2.03365 -12.15359,3.82553 -12.34131,3.98195 -1.28194,1.06823 8.79481,18.24675 27.53301,46.9374 6.10741,9.35124 11.91284,18.6976 12.90094,20.76968 1.63885,3.43671 1.65759,3.90639 0.21347,5.35051 -2.48341,2.48341 -4.88171,0.92715 -10.30611,-6.68762 -2.75,-3.86045 -6.575,-9.13757 -8.5,-11.72692 -1.925,-2.58936 -4.10706,-5.78566 -4.84902,-7.10291 -1.19996,-2.13034 -1.16659,-2.32498 0.30194,-1.76145 1.85085,0.71024 1.5462,-0.0576 -1.92186,-4.84356 -2.88344,-3.97921 -17.70669,-28.83776 -20.48198,-34.34821 -1.56961,-3.11653 -2.6657,-4.21123 -3.86951,-3.86462 -17.51639,5.04347 -33.40753,9.28947 -40.17957,10.73569 -13.15481,2.80932 -21.05451,4.69285 -21.40293,5.10312 -0.1747,0.20571 -5.74475,8.47402 -12.37789,18.37402 -15.88801,23.71295 -20.59125,30.4869 -36.451434,52.5 -13.464682,18.68827 -15.893425,20.96335 -18.730251,17.54518 z M 156,241.85435 c 8.13726,-1.92347 38.22534,-9.95319 38.75434,-10.34251 0.13988,-0.10295 -0.37225,-1.49773 -1.13806,-3.09951 -3.1681,-6.62636 -10.69969,-24.56084 -14.16556,-33.7315 l -3.71096,-9.81916 -2.2015,3.81916 c -6.70673,11.63489 -26.25089,44.53503 -29.00077,48.81917 -5.35151,8.33729 -5.28867,7.86066 -0.93205,7.0702 2.14201,-0.38864 7.71956,-1.61077 12.39456,-2.71585 z"
     id="path1" />
</svg>
